<?xml version="1.0" encoding="utf-8"?>
<!-- Generator: Adobe Illustrator 26.0.3, SVG Export Plug-In . SVG Version: 6.00 Build 0)  -->
<svg version="1.1" id="Layer_1" xmlns="http://www.w3.org/2000/svg" xmlns:xlink="http://www.w3.org/1999/xlink" x="0px" y="0px"
	 viewBox="0 0 174.6 54.6" style="enable-background:new 0 0 174.6 54.6;" xml:space="preserve">
<style type="text/css">
	.st0{fill:#FFFFFF;}
	.st1{font-family:'BeVietnamPro-Bold';}
	.st2{font-size:27.7625px;}
	.st3{letter-spacing:-1;}
	.st4{fill:none;stroke:#FFFFFF;stroke-width:2.0147;stroke-miterlimit:10;}
</style>
<g>
	<text transform="matrix(1 0 0 1 45.5008 37.3001)" class="st0 st1 st2 st3">scarebnb</text>
	<g>
		<g>
			<path class="st0" d="M25.4,17c0.5,0.4,1,0.9,1.4,1.3c0.8,0.9,1,1.9,0.8,3.1c-0.2,1.2-1.4,1.6-2.4,1c-1.4-0.8-1.8-2.1-1.8-3.6
				c0-0.5,0.1-1,0.1-1.5c0.1-0.7,0.6-1,1.3-0.6C25.1,16.8,25.2,16.9,25.4,17C25.4,17,25.4,17,25.4,17z"/>
			<path class="st0" d="M21,20.4c-0.5,0.6-0.9,1-1.6,1.1c-0.8,0.2-1.4-0.2-1.5-1c-0.2-1.1,0.1-2,1-2.7c0.5-0.4,1.1-0.8,1.7-1.1
				c0.5-0.3,1,0,1,0.6c0,0.8,0,1.6-0.2,2.4C21.2,19.9,21.1,20.2,21,20.4z"/>
			<path class="st4" d="M16.8,11.7c-2,3.3-3.3,7.3-4.4,12.5C10.9,31,6.5,36.5,5.9,41.5C5,48,8.9,50.2,16.8,40.7
				c1.1-1.4,2.9-0.7,3.6,0.8c2.4,5,3.3,0.1,7,1.2c1.8,0.6,2.8,3,4.7,3.6c4.6,1.4,8.8-4,2.9-8.6c-5.4-6.2-0.3-10.9-5-22.4
				C27.1,8.6,21.7,5.3,16.8,11.7z"/>
		</g>
		<path class="st0" d="M21.2,35.3c-0.9-1.6-2.5-2.8-2.9-4.6c-1.1-4.1,5-6.9,7.3-3.3c0.7,1.1,0.8,2.6,0.6,3.8
			C25.6,32.9,23.2,38.2,21.2,35.3z"/>
	</g>
</g>
</svg>
